<?xml version="1.0" encoding="utf-8"?>
<!-- Generator: Adobe Illustrator 24.0.0, SVG Export Plug-In . SVG Version: 6.00 Build 0)  -->
<svg version="1.1" id="Layer_1" xmlns="http://www.w3.org/2000/svg" xmlns:xlink="http://www.w3.org/1999/xlink" x="0px" y="0px"
	 viewBox="0 0 3840 2160" style="enable-background:new 0 0 3840 2160;" xml:space="preserve">
<style type="text/css">
	.st0{fill:none;stroke:url(#SVGID_1_);stroke-width:12.0035;stroke-miterlimit:10;}
	.st1{fill:none;stroke:url(#SVGID_2_);stroke-width:12.0035;stroke-miterlimit:10;}
	.st2{fill:none;stroke:url(#SVGID_3_);stroke-width:12.0035;stroke-miterlimit:10;}
	.st3{fill:none;stroke:url(#SVGID_4_);stroke-width:12.0035;stroke-miterlimit:10;}
	.st4{fill:none;stroke:url(#SVGID_5_);stroke-width:12.0035;stroke-miterlimit:10;}
	.st5{fill:none;stroke:url(#SVGID_6_);stroke-width:12.0035;stroke-miterlimit:10;}
	.st6{fill:none;stroke:url(#SVGID_7_);stroke-width:12.0035;stroke-miterlimit:10;}
	.st7{fill:none;stroke:url(#SVGID_8_);stroke-width:12.0035;stroke-miterlimit:10;}
	.st8{fill:none;stroke:url(#SVGID_9_);stroke-width:12.0035;stroke-miterlimit:10;}
	.st9{fill:none;stroke:url(#SVGID_10_);stroke-width:12.0035;stroke-miterlimit:10;}
	.st10{fill:none;stroke:url(#SVGID_11_);stroke-width:12.0035;stroke-miterlimit:10;}
	.st11{fill:none;stroke:url(#SVGID_12_);stroke-width:12.0035;stroke-miterlimit:10;}
	.st12{fill:none;stroke:url(#SVGID_13_);stroke-width:12.0035;stroke-miterlimit:10;}
	.st13{fill:none;stroke:url(#SVGID_14_);stroke-width:12.0035;stroke-miterlimit:10;}
	.st14{fill:none;stroke:url(#SVGID_15_);stroke-width:12.0035;stroke-miterlimit:10;}
	.st15{fill:none;stroke:url(#SVGID_16_);stroke-width:12.0035;stroke-miterlimit:10;}
	.st16{fill:none;stroke:url(#SVGID_17_);stroke-width:12.0035;stroke-miterlimit:10;}
	.st17{fill:none;stroke:url(#SVGID_18_);stroke-width:12.0035;stroke-miterlimit:10;}
	.st18{fill:none;stroke:url(#SVGID_19_);stroke-width:12.0035;stroke-miterlimit:10;}
	.st19{fill:none;stroke:url(#SVGID_20_);stroke-width:12.0035;stroke-miterlimit:10;}
	.st20{fill:none;stroke:url(#SVGID_21_);stroke-width:12.0035;stroke-miterlimit:10;}
	.st21{fill:none;stroke:url(#SVGID_22_);stroke-width:12.0035;stroke-miterlimit:10;}
	.st22{fill:none;stroke:url(#SVGID_23_);stroke-width:12.0035;stroke-miterlimit:10;}
	.st23{fill:none;stroke:url(#SVGID_24_);stroke-width:12.0035;stroke-miterlimit:10;}
	.st24{fill:none;stroke:url(#SVGID_25_);stroke-width:12.0035;stroke-miterlimit:10;}
	.st25{fill:none;stroke:url(#SVGID_26_);stroke-width:12.0035;stroke-miterlimit:10;}
	.st26{fill:none;stroke:url(#SVGID_27_);stroke-width:12.0035;stroke-miterlimit:10;}
	.st27{fill:none;stroke:url(#SVGID_28_);stroke-width:12.0035;stroke-miterlimit:10;}
</style>
<radialGradient id="SVGID_1_" cx="3990.7974" cy="1908.5181" r="1607.6847" gradientTransform="matrix(1 0 0 1.1991 252.8713 -911.7454)" gradientUnits="userSpaceOnUse">
	<stop  offset="0" style="stop-color:#FF1659"/>
	<stop  offset="0.9104" style="stop-color:#FF1659;stop-opacity:0.0896"/>
	<stop  offset="1" style="stop-color:#FF1659;stop-opacity:0"/>
</radialGradient>
<path class="st0" d="M4356.2,3160.73c283.66-253.25,616.83-627.07,545.54-992.69c-115.58-592.8-1205.97-587.51-1317.15-1146.48
	C3456.83,379.21,4772.84-226.08,4582.27-862.02c-47.8-159.52-172.17-260.12-239.87-307.57"/>
<radialGradient id="SVGID_2_" cx="3950.4658" cy="1912.7635" r="1607.6847" gradientTransform="matrix(1 0 0 1.1991 252.8713 -911.7454)" gradientUnits="userSpaceOnUse">
	<stop  offset="0" style="stop-color:#FF1659"/>
	<stop  offset="0.9104" style="stop-color:#FF1659;stop-opacity:0.0896"/>
	<stop  offset="1" style="stop-color:#FF1659;stop-opacity:0"/>
</radialGradient>
<path class="st1" d="M4315.87,3164.97c283.66-253.25,616.83-627.07,545.54-992.69c-115.58-592.8-1205.97-587.51-1317.15-1146.48
	C3416.5,383.45,4732.51-221.84,4541.94-857.78c-47.8-159.52-172.17-260.12-239.87-307.57"/>
<radialGradient id="SVGID_3_" cx="3905.8887" cy="1919.1317" r="1607.6847" gradientTransform="matrix(1 0 0 1.1991 252.8713 -911.7454)" gradientUnits="userSpaceOnUse">
	<stop  offset="0" style="stop-color:#FF1659"/>
	<stop  offset="0.9104" style="stop-color:#FF1659;stop-opacity:0.0896"/>
	<stop  offset="1" style="stop-color:#FF1659;stop-opacity:0"/>
</radialGradient>
<path class="st2" d="M4271.29,3171.33c283.66-253.25,616.83-627.07,545.54-992.69c-115.58-592.8-1205.97-587.51-1317.15-1146.48
	C3371.92,389.81,4687.93-215.47,4497.36-851.41c-47.8-159.52-172.17-260.12-239.87-307.57"/>
<radialGradient id="SVGID_4_" cx="3861.3115" cy="1925.4998" r="1607.6847" gradientTransform="matrix(1 0 0 1.1991 252.8713 -911.7454)" gradientUnits="userSpaceOnUse">
	<stop  offset="0" style="stop-color:#FF1659"/>
	<stop  offset="0.9104" style="stop-color:#FF1659;stop-opacity:0.0896"/>
	<stop  offset="1" style="stop-color:#FF1659;stop-opacity:0"/>
</radialGradient>
<path class="st3" d="M4226.71,3177.69c283.66-253.25,616.83-627.07,545.54-992.69c-115.58-592.8-1205.97-587.51-1317.15-1146.48
	C3327.34,396.17,4643.35-209.11,4452.79-845.05c-47.8-159.52-172.17-260.12-239.87-307.57"/>
<radialGradient id="SVGID_5_" cx="3816.7344" cy="1931.8679" r="1607.6847" gradientTransform="matrix(1 0 0 1.1991 252.8713 -911.7454)" gradientUnits="userSpaceOnUse">
	<stop  offset="0" style="stop-color:#FF1659"/>
	<stop  offset="0.9104" style="stop-color:#FF1659;stop-opacity:0.0896"/>
	<stop  offset="1" style="stop-color:#FF1659;stop-opacity:0"/>
</radialGradient>
<path class="st4" d="M4182.14,3184.06c283.66-253.25,616.83-627.07,545.54-992.69c-115.58-592.8-1205.97-587.51-1317.15-1146.48
	C3282.76,402.54,4598.78-202.75,4408.21-838.69c-47.8-159.52-172.17-260.12-239.87-307.57"/>
<radialGradient id="SVGID_6_" cx="3772.1572" cy="1938.2361" r="1607.6847" gradientTransform="matrix(1 0 0 1.1991 252.8713 -911.7454)" gradientUnits="userSpaceOnUse">
	<stop  offset="0" style="stop-color:#FF1659"/>
	<stop  offset="0.9104" style="stop-color:#FF1659;stop-opacity:0.0896"/>
	<stop  offset="1" style="stop-color:#FF1659;stop-opacity:0"/>
</radialGradient>
<path class="st5" d="M4137.56,3190.42c283.66-253.25,616.83-627.07,545.54-992.69c-115.58-592.8-1205.97-587.51-1317.15-1146.48
	C3238.19,408.9,4554.2-196.38,4363.63-832.32c-47.8-159.52-172.17-260.12-239.87-307.57"/>
<radialGradient id="SVGID_7_" cx="3727.5801" cy="1944.6042" r="1607.6847" gradientTransform="matrix(1 0 0 1.1991 252.8713 -911.7454)" gradientUnits="userSpaceOnUse">
	<stop  offset="0" style="stop-color:#FF1659"/>
	<stop  offset="0.9104" style="stop-color:#FF1659;stop-opacity:0.0896"/>
	<stop  offset="1" style="stop-color:#FF1659;stop-opacity:0"/>
</radialGradient>
<path class="st6" d="M4092.98,3196.78c283.66-253.25,616.83-627.07,545.54-992.69c-115.58-592.8-1205.97-587.51-1317.15-1146.48
	C3193.61,415.26,4509.62-190.02,4319.05-825.96c-47.8-159.52-172.17-260.12-239.87-307.57"/>
<radialGradient id="SVGID_8_" cx="3683.0029" cy="1950.9724" r="1607.6847" gradientTransform="matrix(1 0 0 1.1991 252.8713 -911.7454)" gradientUnits="userSpaceOnUse">
	<stop  offset="0" style="stop-color:#FF1659"/>
	<stop  offset="0.9104" style="stop-color:#FF1659;stop-opacity:0.0896"/>
	<stop  offset="1" style="stop-color:#FF1659;stop-opacity:0"/>
</radialGradient>
<path class="st7" d="M4048.41,3203.15c283.66-253.25,616.83-627.07,545.54-992.69c-115.58-592.8-1205.97-587.51-1317.15-1146.48
	C3149.03,421.63,4465.04-183.66,4274.48-819.6c-47.8-159.52-172.17-260.12-239.87-307.57"/>
<radialGradient id="SVGID_9_" cx="3638.4258" cy="1957.3406" r="1607.6847" gradientTransform="matrix(1 0 0 1.1991 252.8713 -911.7454)" gradientUnits="userSpaceOnUse">
	<stop  offset="0" style="stop-color:#FF1659"/>
	<stop  offset="0.9104" style="stop-color:#FF1659;stop-opacity:0.0896"/>
	<stop  offset="1" style="stop-color:#FF1659;stop-opacity:0"/>
</radialGradient>
<path class="st8" d="M4003.83,3209.51c283.66-253.25,616.83-627.07,545.54-992.69c-115.58-592.8-1205.97-587.51-1317.15-1146.48
	C3104.46,427.99,4420.47-177.29,4229.9-813.23c-47.8-159.52-172.17-260.12-239.87-307.57"/>
<radialGradient id="SVGID_10_" cx="3593.8486" cy="1963.7086" r="1607.6847" gradientTransform="matrix(1 0 0 1.1991 252.8713 -911.7454)" gradientUnits="userSpaceOnUse">
	<stop  offset="0" style="stop-color:#FF1659"/>
	<stop  offset="0.9104" style="stop-color:#FF1659;stop-opacity:0.0896"/>
	<stop  offset="1" style="stop-color:#FF1659;stop-opacity:0"/>
</radialGradient>
<path class="st9" d="M3959.25,3215.87c283.66-253.25,616.83-627.07,545.54-992.69c-115.58-592.8-1205.97-587.51-1317.15-1146.48
	C3059.88,434.35,4375.89-170.93,4185.32-806.87c-47.8-159.52-172.17-260.12-239.87-307.57"/>
<radialGradient id="SVGID_11_" cx="3549.2715" cy="1970.0768" r="1607.6847" gradientTransform="matrix(1 0 0 1.1991 252.8713 -911.7454)" gradientUnits="userSpaceOnUse">
	<stop  offset="0" style="stop-color:#FF1659"/>
	<stop  offset="0.9104" style="stop-color:#FF1659;stop-opacity:0.0896"/>
	<stop  offset="1" style="stop-color:#FF1659;stop-opacity:0"/>
</radialGradient>
<path class="st10" d="M3914.67,3222.24c283.66-253.25,616.83-627.07,545.54-992.69c-115.58-592.8-1205.97-587.51-1317.15-1146.48
	C3015.3,440.72,4331.31-164.57,4140.75-800.51c-47.8-159.52-172.17-260.12-239.87-307.57"/>
<radialGradient id="SVGID_12_" cx="3504.6943" cy="1976.4449" r="1607.6847" gradientTransform="matrix(1 0 0 1.1991 252.8713 -911.7454)" gradientUnits="userSpaceOnUse">
	<stop  offset="0" style="stop-color:#FF1659"/>
	<stop  offset="0.9104" style="stop-color:#FF1659;stop-opacity:0.0896"/>
	<stop  offset="1" style="stop-color:#FF1659;stop-opacity:0"/>
</radialGradient>
<path class="st11" d="M3870.1,3228.6c283.66-253.25,616.83-627.07,545.54-992.69c-115.58-592.8-1205.97-587.51-1317.15-1146.48
	C2970.72,447.08,4286.74-158.2,4096.17-794.14c-47.8-159.52-172.17-260.12-239.87-307.57"/>
<radialGradient id="SVGID_13_" cx="3460.1172" cy="1982.8131" r="1607.6847" gradientTransform="matrix(1 0 0 1.1991 252.8713 -911.7454)" gradientUnits="userSpaceOnUse">
	<stop  offset="0" style="stop-color:#FF1659"/>
	<stop  offset="0.9104" style="stop-color:#FF1659;stop-opacity:0.0896"/>
	<stop  offset="1" style="stop-color:#FF1659;stop-opacity:0"/>
</radialGradient>
<path class="st12" d="M3825.52,3234.96c283.66-253.25,616.83-627.07,545.54-992.69c-115.58-592.8-1205.97-587.51-1317.15-1146.48
	C2926.15,453.44,4242.16-151.84,4051.59-787.78c-47.8-159.52-172.17-260.12-239.87-307.57"/>
<radialGradient id="SVGID_14_" cx="3415.54" cy="1989.1813" r="1607.6847" gradientTransform="matrix(1 0 0 1.1991 252.8713 -911.7454)" gradientUnits="userSpaceOnUse">
	<stop  offset="0" style="stop-color:#FF1659"/>
	<stop  offset="0.9104" style="stop-color:#FF1659;stop-opacity:0.0896"/>
	<stop  offset="1" style="stop-color:#FF1659;stop-opacity:0"/>
</radialGradient>
<path class="st13" d="M3780.94,3241.33c283.66-253.25,616.83-627.07,545.54-992.69c-115.58-592.8-1205.97-587.51-1317.15-1146.48
	C2881.57,459.81,4197.58-145.48,4007.01-781.42c-47.8-159.52-172.17-260.12-239.87-307.57"/>
<radialGradient id="SVGID_15_" cx="3370.9629" cy="1995.5494" r="1607.6847" gradientTransform="matrix(1 0 0 1.1991 252.8713 -911.7454)" gradientUnits="userSpaceOnUse">
	<stop  offset="0" style="stop-color:#FF1659"/>
	<stop  offset="0.9104" style="stop-color:#FF1659;stop-opacity:0.0896"/>
	<stop  offset="1" style="stop-color:#FF1659;stop-opacity:0"/>
</radialGradient>
<path class="st14" d="M3736.37,3247.69c283.66-253.25,616.83-627.07,545.54-992.69c-115.58-592.8-1205.97-587.51-1317.15-1146.48
	C2836.99,466.17,4153-139.11,3962.44-775.05c-47.8-159.52-172.17-260.12-239.87-307.57"/>
<radialGradient id="SVGID_16_" cx="3326.3857" cy="2001.9175" r="1607.6847" gradientTransform="matrix(1 0 0 1.1991 252.8713 -911.7454)" gradientUnits="userSpaceOnUse">
	<stop  offset="0" style="stop-color:#FF1659"/>
	<stop  offset="0.9104" style="stop-color:#FF1659;stop-opacity:0.0896"/>
	<stop  offset="1" style="stop-color:#FF1659;stop-opacity:0"/>
</radialGradient>
<path class="st15" d="M3691.79,3254.06c283.66-253.25,616.83-627.07,545.54-992.69c-115.58-592.8-1205.97-587.51-1317.15-1146.48
	C2792.42,472.53,4108.43-132.75,3917.86-768.69c-47.8-159.52-172.17-260.12-239.87-307.57"/>
<radialGradient id="SVGID_17_" cx="3281.8086" cy="2008.2856" r="1607.6847" gradientTransform="matrix(1 0 0 1.1991 252.8713 -911.7454)" gradientUnits="userSpaceOnUse">
	<stop  offset="0" style="stop-color:#FF1659"/>
	<stop  offset="0.9104" style="stop-color:#FF1659;stop-opacity:0.0896"/>
	<stop  offset="1" style="stop-color:#FF1659;stop-opacity:0"/>
</radialGradient>
<path class="st16" d="M3647.21,3260.42c283.66-253.25,616.83-627.07,545.54-992.69c-115.58-592.8-1205.97-587.51-1317.15-1146.48
	C2747.84,478.9,4063.85-126.38,3873.28-762.33c-47.8-159.52-172.17-260.12-239.87-307.57"/>
<radialGradient id="SVGID_18_" cx="3237.2314" cy="2014.6538" r="1607.6847" gradientTransform="matrix(1 0 0 1.1991 252.8713 -911.7454)" gradientUnits="userSpaceOnUse">
	<stop  offset="0" style="stop-color:#FF1659"/>
	<stop  offset="0.9104" style="stop-color:#FF1659;stop-opacity:0.0896"/>
	<stop  offset="1" style="stop-color:#FF1659;stop-opacity:0"/>
</radialGradient>
<path class="st17" d="M3602.63,3266.78c283.66-253.25,616.83-627.07,545.54-992.69c-115.58-592.8-1205.97-587.51-1317.15-1146.48
	C2703.26,485.26,4019.27-120.02,3828.71-755.96c-47.8-159.52-172.17-260.12-239.87-307.57"/>
<radialGradient id="SVGID_19_" cx="3192.6543" cy="2021.022" r="1607.6847" gradientTransform="matrix(1 0 0 1.1991 252.8713 -911.7454)" gradientUnits="userSpaceOnUse">
	<stop  offset="0" style="stop-color:#FF1659"/>
	<stop  offset="0.9104" style="stop-color:#FF1659;stop-opacity:0.0896"/>
	<stop  offset="1" style="stop-color:#FF1659;stop-opacity:0"/>
</radialGradient>
<path class="st18" d="M3558.06,3273.15c283.66-253.25,616.83-627.07,545.54-992.69c-115.58-592.8-1205.97-587.51-1317.15-1146.48
	C2658.68,491.63,3974.7-113.66,3784.13-749.6c-47.8-159.52-172.17-260.12-239.87-307.57"/>
<radialGradient id="SVGID_20_" cx="3148.0771" cy="2027.3901" r="1607.6847" gradientTransform="matrix(1 0 0 1.1991 252.8713 -911.7454)" gradientUnits="userSpaceOnUse">
	<stop  offset="0" style="stop-color:#FF1659"/>
	<stop  offset="0.9104" style="stop-color:#FF1659;stop-opacity:0.0896"/>
	<stop  offset="1" style="stop-color:#FF1659;stop-opacity:0"/>
</radialGradient>
<path class="st19" d="M3513.48,3279.51c283.66-253.25,616.83-627.07,545.54-992.69c-115.58-592.8-1205.97-587.51-1317.15-1146.48
	C2614.11,497.99,3930.12-107.29,3739.55-743.23c-47.8-159.52-172.17-260.12-239.87-307.57"/>
<radialGradient id="SVGID_21_" cx="3103.5" cy="2033.7583" r="1607.6847" gradientTransform="matrix(1 0 0 1.1991 252.8713 -911.7454)" gradientUnits="userSpaceOnUse">
	<stop  offset="0" style="stop-color:#FF1659"/>
	<stop  offset="0.9104" style="stop-color:#FF1659;stop-opacity:0.0896"/>
	<stop  offset="1" style="stop-color:#FF1659;stop-opacity:0"/>
</radialGradient>
<path class="st20" d="M3468.9,3285.87c283.66-253.25,616.83-627.07,545.54-992.69c-115.58-592.8-1205.97-587.51-1317.15-1146.48
	C2569.53,504.35,3885.54-100.93,3694.97-736.87c-47.8-159.52-172.17-260.12-239.87-307.57"/>
<radialGradient id="SVGID_22_" cx="3058.9229" cy="2040.1263" r="1607.6847" gradientTransform="matrix(1 0 0 1.1991 252.8713 -911.7454)" gradientUnits="userSpaceOnUse">
	<stop  offset="0" style="stop-color:#FF1659"/>
	<stop  offset="0.9104" style="stop-color:#FF1659;stop-opacity:0.0896"/>
	<stop  offset="1" style="stop-color:#FF1659;stop-opacity:0"/>
</radialGradient>
<path class="st21" d="M3424.33,3292.24c283.66-253.25,616.83-627.07,545.54-992.69c-115.58-592.8-1205.97-587.51-1317.15-1146.48
	C2524.95,510.72,3840.96-94.57,3650.4-730.51c-47.8-159.52-172.17-260.12-239.87-307.57"/>
<radialGradient id="SVGID_23_" cx="3014.3457" cy="2046.4945" r="1607.6847" gradientTransform="matrix(1 0 0 1.1991 252.8713 -911.7454)" gradientUnits="userSpaceOnUse">
	<stop  offset="0" style="stop-color:#FF1659"/>
	<stop  offset="0.9104" style="stop-color:#FF1659;stop-opacity:0.0896"/>
	<stop  offset="1" style="stop-color:#FF1659;stop-opacity:0"/>
</radialGradient>
<path class="st22" d="M3379.75,3298.6c283.66-253.25,616.83-627.07,545.54-992.69c-115.58-592.8-1205.97-587.51-1317.15-1146.48
	C2480.38,517.08,3796.39-88.2,3605.82-724.14c-47.8-159.52-172.17-260.12-239.87-307.57"/>
<radialGradient id="SVGID_24_" cx="2969.7686" cy="2052.8628" r="1607.6847" gradientTransform="matrix(1 0 0 1.1991 252.8713 -911.7454)" gradientUnits="userSpaceOnUse">
	<stop  offset="0" style="stop-color:#FF1659"/>
	<stop  offset="0.9104" style="stop-color:#FF1659;stop-opacity:0.0896"/>
	<stop  offset="1" style="stop-color:#FF1659;stop-opacity:0"/>
</radialGradient>
<path class="st23" d="M3335.17,3304.96c283.66-253.25,616.83-627.07,545.54-992.69c-115.58-592.8-1205.97-587.51-1317.15-1146.48
	C2435.8,523.44,3751.81-81.84,3561.24-717.78c-47.8-159.52-172.17-260.12-239.87-307.57"/>
<radialGradient id="SVGID_25_" cx="2925.1914" cy="2059.2307" r="1607.6847" gradientTransform="matrix(1 0 0 1.1991 252.8713 -911.7454)" gradientUnits="userSpaceOnUse">
	<stop  offset="0" style="stop-color:#FF1659"/>
	<stop  offset="0.9104" style="stop-color:#FF1659;stop-opacity:0.0896"/>
	<stop  offset="1" style="stop-color:#FF1659;stop-opacity:0"/>
</radialGradient>
<path class="st24" d="M3290.59,3311.33c283.66-253.25,616.83-627.07,545.54-992.69c-115.58-592.8-1205.97-587.51-1317.15-1146.48
	C2391.22,529.81,3707.23-75.48,3516.67-711.42c-47.8-159.52-172.17-260.12-239.87-307.57"/>
<radialGradient id="SVGID_26_" cx="2880.614" cy="2065.5989" r="1607.6847" gradientTransform="matrix(1 0 0 1.1991 252.8713 -911.7454)" gradientUnits="userSpaceOnUse">
	<stop  offset="0" style="stop-color:#FF1659"/>
	<stop  offset="0.9104" style="stop-color:#FF1659;stop-opacity:0.0896"/>
	<stop  offset="1" style="stop-color:#FF1659;stop-opacity:0"/>
</radialGradient>
<path class="st25" d="M3246.02,3317.69c283.66-253.25,616.83-627.07,545.54-992.69c-115.58-592.8-1205.97-587.51-1317.15-1146.48
	C2346.64,536.17,3662.66-69.11,3472.09-705.05c-47.8-159.52-172.17-260.12-239.87-307.57"/>
<radialGradient id="SVGID_27_" cx="2836.0369" cy="2071.967" r="1607.6847" gradientTransform="matrix(1 0 0 1.1991 252.8713 -911.7454)" gradientUnits="userSpaceOnUse">
	<stop  offset="0" style="stop-color:#FF1659"/>
	<stop  offset="0.9104" style="stop-color:#FF1659;stop-opacity:0.0896"/>
	<stop  offset="1" style="stop-color:#FF1659;stop-opacity:0"/>
</radialGradient>
<path class="st26" d="M3201.44,3324.05c283.66-253.25,616.83-627.07,545.54-992.69c-115.58-592.8-1205.97-587.51-1317.15-1146.48
	C2302.07,542.53,3618.08-62.75,3427.51-698.69c-47.8-159.52-172.17-260.12-239.87-307.57"/>
<radialGradient id="SVGID_28_" cx="2791.4597" cy="2078.3352" r="1607.6847" gradientTransform="matrix(1 0 0 1.1991 252.8713 -911.7454)" gradientUnits="userSpaceOnUse">
	<stop  offset="0" style="stop-color:#FF1659"/>
	<stop  offset="0.9104" style="stop-color:#FF1659;stop-opacity:0.0896"/>
	<stop  offset="1" style="stop-color:#FF1659;stop-opacity:0"/>
</radialGradient>
<path class="st27" d="M3156.86,3330.42c283.66-253.25,616.83-627.07,545.54-992.69c-115.58-592.8-1205.97-587.51-1317.15-1146.48
	C2257.49,548.9,3573.5-56.39,3382.93-692.33c-47.8-159.52-172.17-260.12-239.87-307.57"/>
</svg>
