<?xml version="1.0" encoding="utf-8"?>
<!-- Generator: Adobe Illustrator 24.0.0, SVG Export Plug-In . SVG Version: 6.00 Build 0)  -->
<svg version="1.1" id="Layer_1" xmlns="http://www.w3.org/2000/svg" xmlns:xlink="http://www.w3.org/1999/xlink" x="0px" y="0px"
	 viewBox="0 0 1125 2436" style="enable-background:new 0 0 1125 2436;" xml:space="preserve">
<style type="text/css">
	.st0{fill:none;stroke:url(#SVGID_1_);stroke-width:8;stroke-miterlimit:10;}
	.st1{fill:none;stroke:url(#SVGID_2_);stroke-width:8;stroke-miterlimit:10;}
	.st2{fill:none;stroke:url(#SVGID_3_);stroke-width:8;stroke-miterlimit:10;}
	.st3{fill:none;stroke:url(#SVGID_4_);stroke-width:8;stroke-miterlimit:10;}
	.st4{fill:none;stroke:url(#SVGID_5_);stroke-width:8;stroke-miterlimit:10;}
	.st5{fill:none;stroke:url(#SVGID_6_);stroke-width:8;stroke-miterlimit:10;}
	.st6{fill:none;stroke:url(#SVGID_7_);stroke-width:8;stroke-miterlimit:10;}
	.st7{fill:none;stroke:url(#SVGID_8_);stroke-width:8;stroke-miterlimit:10;}
	.st8{fill:none;stroke:url(#SVGID_9_);stroke-width:8;stroke-miterlimit:10;}
	.st9{fill:none;stroke:url(#SVGID_10_);stroke-width:8;stroke-miterlimit:10;}
	.st10{fill:none;stroke:url(#SVGID_11_);stroke-width:8;stroke-miterlimit:10;}
	.st11{fill:none;stroke:url(#SVGID_12_);stroke-width:8;stroke-miterlimit:10;}
	.st12{fill:none;stroke:url(#SVGID_13_);stroke-width:8;stroke-miterlimit:10;}
	.st13{fill:none;stroke:url(#SVGID_14_);stroke-width:8;stroke-miterlimit:10;}
	.st14{fill:none;stroke:url(#SVGID_15_);stroke-width:8;stroke-miterlimit:10;}
	.st15{fill:none;stroke:url(#SVGID_16_);stroke-width:8;stroke-miterlimit:10;}
	.st16{fill:none;stroke:url(#SVGID_17_);stroke-width:8;stroke-miterlimit:10;}
	.st17{fill:none;stroke:url(#SVGID_18_);stroke-width:8;stroke-miterlimit:10;}
	.st18{fill:none;stroke:url(#SVGID_19_);stroke-width:8;stroke-miterlimit:10;}
	.st19{fill:none;stroke:url(#SVGID_20_);stroke-width:8;stroke-miterlimit:10;}
	.st20{fill:none;stroke:url(#SVGID_21_);stroke-width:8;stroke-miterlimit:10;}
	.st21{fill:none;stroke:url(#SVGID_22_);stroke-width:8;stroke-miterlimit:10;}
	.st22{fill:none;stroke:url(#SVGID_23_);stroke-width:8;stroke-miterlimit:10;}
	.st23{fill:none;stroke:url(#SVGID_24_);stroke-width:8;stroke-miterlimit:10;}
	.st24{fill:none;stroke:url(#SVGID_25_);stroke-width:8;stroke-miterlimit:10;}
	.st25{fill:none;stroke:url(#SVGID_26_);stroke-width:8;stroke-miterlimit:10;}
	.st26{fill:none;stroke:url(#SVGID_27_);stroke-width:8;stroke-miterlimit:10;}
	.st27{fill:none;stroke:url(#SVGID_28_);stroke-width:8;stroke-miterlimit:10;}
</style>
<radialGradient id="SVGID_1_" cx="1271.644" cy="2255.7407" r="1071.0835" gradientTransform="matrix(1 0 0 1.2 252.8713 -913.4443)" gradientUnits="userSpaceOnUse">
	<stop  offset="0" style="stop-color:#FF1659"/>
	<stop  offset="0.9104" style="stop-color:#FF1659;stop-opacity:0.0896"/>
	<stop  offset="1" style="stop-color:#FF1659;stop-opacity:0"/>
</radialGradient>
<path class="st0" d="M1599.49,2786c188.98-168.85,410.95-418.08,363.45-661.85c-77-395.23-803.45-391.71-877.52-764.38
	C1000.3,931.5,1877.06,527.94,1750.1,103.95C1718.25-2.41,1635.4-69.48,1590.3-101.12"/>
<radialGradient id="SVGID_2_" cx="1244.7739" cy="2258.5693" r="1071.0835" gradientTransform="matrix(1 0 0 1.2 252.8713 -913.4443)" gradientUnits="userSpaceOnUse">
	<stop  offset="0" style="stop-color:#FF1659"/>
	<stop  offset="0.9104" style="stop-color:#FF1659;stop-opacity:0.0896"/>
	<stop  offset="1" style="stop-color:#FF1659;stop-opacity:0"/>
</radialGradient>
<path class="st1" d="M1572.62,2788.83c188.98-168.85,410.95-418.08,363.45-661.85c-77-395.23-803.45-391.71-877.52-764.38
	c-85.12-428.27,791.64-831.83,664.68-1255.82c-31.85-106.36-114.7-173.43-159.81-205.06"/>
<radialGradient id="SVGID_3_" cx="1215.0754" cy="2262.8118" r="1071.0835" gradientTransform="matrix(1 0 0 1.2 252.8713 -913.4443)" gradientUnits="userSpaceOnUse">
	<stop  offset="0" style="stop-color:#FF1659"/>
	<stop  offset="0.9104" style="stop-color:#FF1659;stop-opacity:0.0896"/>
	<stop  offset="1" style="stop-color:#FF1659;stop-opacity:0"/>
</radialGradient>
<path class="st2" d="M1542.92,2793.07c188.98-168.85,410.95-418.08,363.45-661.85c-77-395.23-803.45-391.71-877.52-764.38
	c-85.12-428.27,791.64-831.83,664.68-1255.82c-31.85-106.36-114.7-173.43-159.81-205.06"/>
<radialGradient id="SVGID_4_" cx="1185.377" cy="2267.0544" r="1071.0835" gradientTransform="matrix(1 0 0 1.2 252.8713 -913.4443)" gradientUnits="userSpaceOnUse">
	<stop  offset="0" style="stop-color:#FF1659"/>
	<stop  offset="0.9104" style="stop-color:#FF1659;stop-opacity:0.0896"/>
	<stop  offset="1" style="stop-color:#FF1659;stop-opacity:0"/>
</radialGradient>
<path class="st3" d="M1513.22,2797.31c188.98-168.85,410.95-418.08,363.45-661.85c-77-395.23-803.45-391.71-877.52-764.38
	c-85.12-428.27,791.64-831.83,664.68-1255.82C1631.99,8.9,1549.13-58.17,1504.03-89.8"/>
<radialGradient id="SVGID_5_" cx="1155.6785" cy="2271.2971" r="1071.0835" gradientTransform="matrix(1 0 0 1.2 252.8713 -913.4443)" gradientUnits="userSpaceOnUse">
	<stop  offset="0" style="stop-color:#FF1659"/>
	<stop  offset="0.9104" style="stop-color:#FF1659;stop-opacity:0.0896"/>
	<stop  offset="1" style="stop-color:#FF1659;stop-opacity:0"/>
</radialGradient>
<path class="st4" d="M1483.52,2801.56c188.98-168.85,410.95-418.08,363.45-661.85c-77-395.23-803.45-391.71-877.52-764.38
	C884.34,947.05,1761.1,543.5,1634.14,119.5c-31.85-106.36-114.7-173.43-159.81-205.06"/>
<radialGradient id="SVGID_6_" cx="1125.98" cy="2275.5398" r="1071.0835" gradientTransform="matrix(1 0 0 1.2 252.8713 -913.4443)" gradientUnits="userSpaceOnUse">
	<stop  offset="0" style="stop-color:#FF1659"/>
	<stop  offset="0.9104" style="stop-color:#FF1659;stop-opacity:0.0896"/>
	<stop  offset="1" style="stop-color:#FF1659;stop-opacity:0"/>
</radialGradient>
<path class="st5" d="M1453.82,2805.8c188.98-168.85,410.95-418.08,363.45-661.85c-77-395.23-803.45-391.71-877.52-764.38
	C854.64,951.3,1731.4,547.74,1604.44,123.74c-31.85-106.36-114.7-173.43-159.81-205.06"/>
<radialGradient id="SVGID_7_" cx="1096.2815" cy="2279.7825" r="1071.0835" gradientTransform="matrix(1 0 0 1.2 252.8713 -913.4443)" gradientUnits="userSpaceOnUse">
	<stop  offset="0" style="stop-color:#FF1659"/>
	<stop  offset="0.9104" style="stop-color:#FF1659;stop-opacity:0.0896"/>
	<stop  offset="1" style="stop-color:#FF1659;stop-opacity:0"/>
</radialGradient>
<path class="st6" d="M1424.12,2810.04c188.98-168.85,410.95-418.08,363.45-661.85c-77-395.23-803.45-391.71-877.52-764.38
	c-85.12-428.27,791.64-831.83,664.68-1255.82c-31.85-106.36-114.7-173.43-159.81-205.06"/>
<radialGradient id="SVGID_8_" cx="1066.583" cy="2284.0249" r="1071.0835" gradientTransform="matrix(1 0 0 1.2 252.8713 -913.4443)" gradientUnits="userSpaceOnUse">
	<stop  offset="0" style="stop-color:#FF1659"/>
	<stop  offset="0.9104" style="stop-color:#FF1659;stop-opacity:0.0896"/>
	<stop  offset="1" style="stop-color:#FF1659;stop-opacity:0"/>
</radialGradient>
<path class="st7" d="M1394.43,2814.29c188.98-168.85,410.95-418.08,363.45-661.85c-77-395.23-803.45-391.71-877.52-764.38
	C795.24,959.78,1672,556.23,1545.04,132.23c-31.85-106.36-114.7-173.43-159.81-205.06"/>
<radialGradient id="SVGID_9_" cx="1036.8845" cy="2288.2676" r="1071.0835" gradientTransform="matrix(1 0 0 1.2 252.8713 -913.4443)" gradientUnits="userSpaceOnUse">
	<stop  offset="0" style="stop-color:#FF1659"/>
	<stop  offset="0.9104" style="stop-color:#FF1659;stop-opacity:0.0896"/>
	<stop  offset="1" style="stop-color:#FF1659;stop-opacity:0"/>
</radialGradient>
<path class="st8" d="M1364.73,2818.53c188.98-168.85,410.95-418.08,363.45-661.85c-77-395.23-803.45-391.71-877.52-764.38
	c-85.12-428.27,791.64-831.83,664.68-1255.82c-31.85-106.36-114.7-173.43-159.81-205.06"/>
<radialGradient id="SVGID_10_" cx="1007.186" cy="2292.5103" r="1071.0835" gradientTransform="matrix(1 0 0 1.2 252.8713 -913.4443)" gradientUnits="userSpaceOnUse">
	<stop  offset="0" style="stop-color:#FF1659"/>
	<stop  offset="0.9104" style="stop-color:#FF1659;stop-opacity:0.0896"/>
	<stop  offset="1" style="stop-color:#FF1659;stop-opacity:0"/>
</radialGradient>
<path class="st9" d="M1335.03,2822.77c188.98-168.85,410.95-418.08,363.45-661.85c-77-395.23-803.45-391.71-877.52-764.38
	c-85.12-428.27,791.64-831.83,664.68-1255.82c-31.85-106.36-114.7-173.43-159.81-205.06"/>
<radialGradient id="SVGID_11_" cx="977.4875" cy="2296.7529" r="1071.0835" gradientTransform="matrix(1 0 0 1.2 252.8713 -913.4443)" gradientUnits="userSpaceOnUse">
	<stop  offset="0" style="stop-color:#FF1659"/>
	<stop  offset="0.9104" style="stop-color:#FF1659;stop-opacity:0.0896"/>
	<stop  offset="1" style="stop-color:#FF1659;stop-opacity:0"/>
</radialGradient>
<path class="st10" d="M1305.33,2827.01c188.98-168.85,410.95-418.08,363.45-661.85c-77-395.23-803.45-391.71-877.52-764.38
	c-85.12-428.27,791.64-831.83,664.68-1255.82C1424.1,38.6,1341.24-28.47,1296.14-60.1"/>
<radialGradient id="SVGID_12_" cx="947.7891" cy="2300.9956" r="1071.0835" gradientTransform="matrix(1 0 0 1.2 252.8713 -913.4443)" gradientUnits="userSpaceOnUse">
	<stop  offset="0" style="stop-color:#FF1659"/>
	<stop  offset="0.9104" style="stop-color:#FF1659;stop-opacity:0.0896"/>
	<stop  offset="1" style="stop-color:#FF1659;stop-opacity:0"/>
</radialGradient>
<path class="st11" d="M1275.63,2831.26c188.98-168.85,410.95-418.08,363.45-661.85c-77-395.23-803.45-391.71-877.52-764.38
	C676.45,976.75,1553.21,573.2,1426.25,149.2c-31.85-106.36-114.7-173.43-159.81-205.06"/>
<radialGradient id="SVGID_13_" cx="918.0906" cy="2305.238" r="1071.0835" gradientTransform="matrix(1 0 0 1.2 252.8713 -913.4443)" gradientUnits="userSpaceOnUse">
	<stop  offset="0" style="stop-color:#FF1659"/>
	<stop  offset="0.9104" style="stop-color:#FF1659;stop-opacity:0.0896"/>
	<stop  offset="1" style="stop-color:#FF1659;stop-opacity:0"/>
</radialGradient>
<path class="st12" d="M1245.93,2835.5c188.98-168.85,410.95-418.08,363.45-661.85c-77-395.23-803.45-391.71-877.52-764.38
	c-85.12-428.27,791.64-831.83,664.68-1255.82c-31.85-106.36-114.7-173.43-159.81-205.06"/>
<radialGradient id="SVGID_14_" cx="888.3921" cy="2309.4807" r="1071.0835" gradientTransform="matrix(1 0 0 1.2 252.8713 -913.4443)" gradientUnits="userSpaceOnUse">
	<stop  offset="0" style="stop-color:#FF1659"/>
	<stop  offset="0.9104" style="stop-color:#FF1659;stop-opacity:0.0896"/>
	<stop  offset="1" style="stop-color:#FF1659;stop-opacity:0"/>
</radialGradient>
<path class="st13" d="M1216.23,2839.74c188.98-168.85,410.95-418.08,363.45-661.85c-77-395.23-803.45-391.71-877.52-764.38
	c-85.12-428.27,791.64-831.83,664.68-1255.82C1335,51.33,1252.14-15.74,1207.04-47.38"/>
<radialGradient id="SVGID_15_" cx="858.6936" cy="2313.7234" r="1071.0835" gradientTransform="matrix(1 0 0 1.2 252.8713 -913.4443)" gradientUnits="userSpaceOnUse">
	<stop  offset="0" style="stop-color:#FF1659"/>
	<stop  offset="0.9104" style="stop-color:#FF1659;stop-opacity:0.0896"/>
	<stop  offset="1" style="stop-color:#FF1659;stop-opacity:0"/>
</radialGradient>
<path class="st14" d="M1186.54,2843.98c188.98-168.85,410.95-418.08,363.45-661.85c-77-395.23-803.45-391.71-877.52-764.38
	c-85.12-428.27,791.64-831.83,664.68-1255.82C1305.3,55.57,1222.45-11.5,1177.35-43.13"/>
<radialGradient id="SVGID_16_" cx="828.9951" cy="2317.9661" r="1071.0835" gradientTransform="matrix(1 0 0 1.2 252.8713 -913.4443)" gradientUnits="userSpaceOnUse">
	<stop  offset="0" style="stop-color:#FF1659"/>
	<stop  offset="0.9104" style="stop-color:#FF1659;stop-opacity:0.0896"/>
	<stop  offset="1" style="stop-color:#FF1659;stop-opacity:0"/>
</radialGradient>
<path class="st15" d="M1156.84,2848.23c188.98-168.85,410.95-418.08,363.45-661.85c-77-395.23-803.45-391.71-877.52-764.38
	c-85.12-428.27,791.64-831.83,664.68-1255.82C1275.6,59.81,1192.75-7.26,1147.65-38.89"/>
<radialGradient id="SVGID_17_" cx="799.2966" cy="2322.2087" r="1071.0835" gradientTransform="matrix(1 0 0 1.2 252.8713 -913.4443)" gradientUnits="userSpaceOnUse">
	<stop  offset="0" style="stop-color:#FF1659"/>
	<stop  offset="0.9104" style="stop-color:#FF1659;stop-opacity:0.0896"/>
	<stop  offset="1" style="stop-color:#FF1659;stop-opacity:0"/>
</radialGradient>
<path class="st16" d="M1127.14,2852.47c188.98-168.85,410.95-418.08,363.45-661.85c-77-395.23-803.45-391.71-877.52-764.38
	c-85.12-428.27,791.64-831.83,664.68-1255.82c-31.85-106.36-114.7-173.43-159.81-205.06"/>
<radialGradient id="SVGID_18_" cx="769.5981" cy="2326.4512" r="1071.0835" gradientTransform="matrix(1 0 0 1.2 252.8713 -913.4443)" gradientUnits="userSpaceOnUse">
	<stop  offset="0" style="stop-color:#FF1659"/>
	<stop  offset="0.9104" style="stop-color:#FF1659;stop-opacity:0.0896"/>
	<stop  offset="1" style="stop-color:#FF1659;stop-opacity:0"/>
</radialGradient>
<path class="st17" d="M1097.44,2856.71c188.98-168.85,410.95-418.08,363.45-661.85c-77-395.23-803.45-391.71-877.52-764.38
	c-85.12-428.27,791.64-831.83,664.68-1255.82C1216.21,68.3,1133.35,1.23,1088.25-30.41"/>
<radialGradient id="SVGID_19_" cx="739.8997" cy="2330.6938" r="1071.0835" gradientTransform="matrix(1 0 0 1.2 252.8713 -913.4443)" gradientUnits="userSpaceOnUse">
	<stop  offset="0" style="stop-color:#FF1659"/>
	<stop  offset="0.9104" style="stop-color:#FF1659;stop-opacity:0.0896"/>
	<stop  offset="1" style="stop-color:#FF1659;stop-opacity:0"/>
</radialGradient>
<path class="st18" d="M1067.74,2860.95c188.98-168.85,410.95-418.08,363.45-661.85c-77-395.23-803.45-391.71-877.52-764.38
	c-85.12-428.27,791.64-831.83,664.68-1255.82c-31.85-106.36-114.7-173.43-159.81-205.06"/>
<radialGradient id="SVGID_20_" cx="710.2012" cy="2334.9365" r="1071.0835" gradientTransform="matrix(1 0 0 1.2 252.8713 -913.4443)" gradientUnits="userSpaceOnUse">
	<stop  offset="0" style="stop-color:#FF1659"/>
	<stop  offset="0.9104" style="stop-color:#FF1659;stop-opacity:0.0896"/>
	<stop  offset="1" style="stop-color:#FF1659;stop-opacity:0"/>
</radialGradient>
<path class="st19" d="M1038.04,2865.2c188.98-168.85,410.95-418.08,363.45-661.85c-77-395.23-803.45-391.71-877.52-764.38
	c-85.12-428.27,791.64-831.83,664.68-1255.82c-31.85-106.36-114.7-173.43-159.81-205.06"/>
<radialGradient id="SVGID_21_" cx="680.5027" cy="2339.1792" r="1071.0835" gradientTransform="matrix(1 0 0 1.2 252.8713 -913.4443)" gradientUnits="userSpaceOnUse">
	<stop  offset="0" style="stop-color:#FF1659"/>
	<stop  offset="0.9104" style="stop-color:#FF1659;stop-opacity:0.0896"/>
	<stop  offset="1" style="stop-color:#FF1659;stop-opacity:0"/>
</radialGradient>
<path class="st20" d="M1008.35,2869.44c188.98-168.85,410.95-418.08,363.45-661.85c-77-395.23-803.45-391.71-877.52-764.38
	c-85.12-428.27,791.64-831.83,664.68-1255.82c-31.85-106.36-114.7-173.43-159.81-205.06"/>
<radialGradient id="SVGID_22_" cx="650.8042" cy="2343.4219" r="1071.0835" gradientTransform="matrix(1 0 0 1.2 252.8713 -913.4443)" gradientUnits="userSpaceOnUse">
	<stop  offset="0" style="stop-color:#FF1659"/>
	<stop  offset="0.9104" style="stop-color:#FF1659;stop-opacity:0.0896"/>
	<stop  offset="1" style="stop-color:#FF1659;stop-opacity:0"/>
</radialGradient>
<path class="st21" d="M978.65,2873.68c188.98-168.85,410.95-418.08,363.45-661.85c-77-395.23-803.45-391.71-877.52-764.38
	c-85.12-428.27,791.64-831.83,664.68-1255.82C1097.41,85.27,1014.56,18.2,969.46-13.44"/>
<radialGradient id="SVGID_23_" cx="621.1057" cy="2347.6643" r="1071.0835" gradientTransform="matrix(1 0 0 1.2 252.8713 -913.4443)" gradientUnits="userSpaceOnUse">
	<stop  offset="0" style="stop-color:#FF1659"/>
	<stop  offset="0.9104" style="stop-color:#FF1659;stop-opacity:0.0896"/>
	<stop  offset="1" style="stop-color:#FF1659;stop-opacity:0"/>
</radialGradient>
<path class="st22" d="M948.95,2877.92c188.98-168.85,410.95-418.08,363.45-661.85c-77-395.23-803.45-391.71-877.52-764.38
	c-85.12-428.27,791.64-831.83,664.68-1255.82C1067.72,89.51,984.86,22.44,939.76-9.19"/>
<radialGradient id="SVGID_24_" cx="591.4072" cy="2351.907" r="1071.0835" gradientTransform="matrix(1 0 0 1.2 252.8713 -913.4443)" gradientUnits="userSpaceOnUse">
	<stop  offset="0" style="stop-color:#FF1659"/>
	<stop  offset="0.9104" style="stop-color:#FF1659;stop-opacity:0.0896"/>
	<stop  offset="1" style="stop-color:#FF1659;stop-opacity:0"/>
</radialGradient>
<path class="st23" d="M919.25,2882.17c188.98-168.85,410.95-418.08,363.45-661.85c-77-395.23-803.45-391.71-877.52-764.38
	c-85.12-428.27,791.64-831.83,664.68-1255.82C1038.02,93.75,955.16,26.68,910.06-4.95"/>
<radialGradient id="SVGID_25_" cx="561.7087" cy="2356.1497" r="1071.0835" gradientTransform="matrix(1 0 0 1.2 252.8713 -913.4443)" gradientUnits="userSpaceOnUse">
	<stop  offset="0" style="stop-color:#FF1659"/>
	<stop  offset="0.9104" style="stop-color:#FF1659;stop-opacity:0.0896"/>
	<stop  offset="1" style="stop-color:#FF1659;stop-opacity:0"/>
</radialGradient>
<path class="st24" d="M889.55,2886.41c188.98-168.85,410.95-418.08,363.45-661.85c-77-395.23-803.45-391.71-877.52-764.38
	c-85.12-428.27,791.64-831.83,664.68-1255.82C1008.32,98,925.46,30.93,880.36-0.71"/>
<radialGradient id="SVGID_26_" cx="532.0103" cy="2360.3923" r="1071.0835" gradientTransform="matrix(1 0 0 1.2 252.8713 -913.4443)" gradientUnits="userSpaceOnUse">
	<stop  offset="0" style="stop-color:#FF1659"/>
	<stop  offset="0.9104" style="stop-color:#FF1659;stop-opacity:0.0896"/>
	<stop  offset="1" style="stop-color:#FF1659;stop-opacity:0"/>
</radialGradient>
<path class="st25" d="M859.85,2890.65c188.98-168.85,410.95-418.08,363.45-661.85c-77-395.23-803.45-391.71-877.52-764.38
	c-85.12-428.27,791.64-831.83,664.68-1255.82C978.62,102.24,895.76,35.17,850.66,3.54"/>
<radialGradient id="SVGID_27_" cx="502.3118" cy="2364.635" r="1071.0835" gradientTransform="matrix(1 0 0 1.2 252.8713 -913.4443)" gradientUnits="userSpaceOnUse">
	<stop  offset="0" style="stop-color:#FF1659"/>
	<stop  offset="0.9104" style="stop-color:#FF1659;stop-opacity:0.0896"/>
	<stop  offset="1" style="stop-color:#FF1659;stop-opacity:0"/>
</radialGradient>
<path class="st26" d="M830.15,2894.9c188.98-168.85,410.95-418.08,363.45-661.85c-77-395.23-803.45-391.71-877.52-764.38
	c-85.12-428.27,791.64-831.83,664.68-1255.82C948.92,106.48,866.06,39.41,820.96,7.78"/>
<radialGradient id="SVGID_28_" cx="472.6133" cy="2368.8774" r="1071.0835" gradientTransform="matrix(1 0 0 1.2 252.8713 -913.4443)" gradientUnits="userSpaceOnUse">
	<stop  offset="0" style="stop-color:#FF1659"/>
	<stop  offset="0.9104" style="stop-color:#FF1659;stop-opacity:0.0896"/>
	<stop  offset="1" style="stop-color:#FF1659;stop-opacity:0"/>
</radialGradient>
<path class="st27" d="M800.46,2899.14c188.98-168.85,410.95-418.08,363.45-661.85c-77-395.23-803.45-391.71-877.52-764.38
	c-85.12-428.27,791.64-831.83,664.68-1255.82C919.22,110.72,836.37,43.65,791.27,12.02"/>
</svg>
