<?xml version="1.0" standalone="no"?>
<!DOCTYPE svg PUBLIC "-//W3C//DTD SVG 20010904//EN"
 "http://www.w3.org/TR/2001/REC-SVG-20010904/DTD/svg10.dtd">
<svg version="1.0" xmlns="http://www.w3.org/2000/svg"
 width="700.000000pt" height="700.000000pt" viewBox="0 0 700.000000 700.000000"
 preserveAspectRatio="xMidYMid meet">
<metadata>
Created by potrace 1.11, written by Peter Selinger 2001-2013
</metadata>
<g transform="translate(0.000000,700.000000) scale(0.100000,-0.100000)"
fill="#000000" stroke="none">
<path d="M2833 5668 c-458 -458 -833 -839 -833 -845 0 -7 10 -17 21 -24 20
-10 85 52 856 823 615 615 834 840 831 854 -10 55 -35 33 -875 -808z"/>
<path d="M2663 5847 c-354 -353 -634 -640 -631 -648 2 -7 12 -17 21 -23 14 -9
114 86 654 627 541 540 636 640 627 654 -6 9 -16 19 -23 21 -8 3 -295 -277
-648 -631z"/>
<path d="M2981 5476 c-551 -551 -982 -989 -979 -997 2 -7 12 -17 21 -23 14 -9
165 137 993 964 536 536 980 983 985 993 11 20 -3 47 -25 47 -6 0 -454 -443
-995 -984z"/>
<path d="M3105 5260 c-942 -942 -1108 -1113 -1099 -1127 6 -9 16 -19 23 -21 8
-3 503 485 1122 1104 825 824 1109 1114 1107 1129 -2 11 -12 21 -23 23 -15 2
-306 -283 -1130 -1108z"/>
<path d="M2499 6013 c-251 -249 -276 -282 -225 -291 27 -6 518 485 514 513 -7
52 -40 28 -289 -222z"/>
<path d="M3221 5035 c-1042 -1041 -1224 -1227 -1215 -1242 6 -9 16 -19 23 -21
20 -7 2451 2428 2451 2454 0 12 -8 25 -17 28 -13 5 -307 -283 -1242 -1219z"/>
<path d="M3327 4813 c-719 -719 -1313 -1316 -1319 -1327 -14 -26 12 -52 38
-38 11 6 608 600 1327 1319 963 964 1306 1313 1302 1325 -4 9 -14 19 -23 23
-12 4 -361 -339 -1325 -1302z"/>
<path d="M3396 4541 c-1059 -1060 -1397 -1403 -1392 -1416 3 -9 6 -19 6 -21 0
-33 229 190 1439 1400 1218 1218 1403 1407 1392 1420 -8 9 -21 16 -30 16 -9 0
-646 -630 -1415 -1399z"/>
<path d="M3472 4267 c-1479 -1479 -1506 -1507 -1443 -1507 9 0 679 663 1489
1473 1479 1479 1506 1507 1443 1507 -9 0 -679 -663 -1489 -1473z"/>
<path d="M3525 3980 c-1590 -1590 -1551 -1550 -1496 -1568 8 -3 685 667 1542
1524 1138 1138 1529 1534 1527 1549 -2 11 -12 21 -23 23 -15 2 -412 -389
-1550 -1528z"/>
<path d="M3566 3681 c-1361 -1361 -1569 -1573 -1560 -1588 6 -10 17 -19 25
-21 8 -1 720 704 1584 1568 1632 1632 1591 1590 1536 1608 -8 3 -703 -685
-1585 -1567z"/>
<path d="M3581 3356 c-1170 -1170 -1582 -1588 -1578 -1600 4 -9 14 -19 23 -23
23 -9 3186 3153 3182 3182 -2 11 -12 21 -23 23 -15 2 -425 -403 -1604 -1582z"/>
<path d="M4503 3938 c-621 -621 -644 -646 -589 -656 14 -3 183 160 633 609
618 618 644 647 590 657 -13 3 -195 -173 -634 -610z"/>
<path d="M4722 3837 c-191 -191 -251 -257 -246 -270 3 -9 14 -17 24 -17 23 0
515 495 515 518 0 9 -9 18 -20 20 -15 2 -89 -66 -273 -251z"/>
<path d="M2731 2176 c-553 -553 -732 -738 -727 -751 3 -9 6 -19 6 -21 0 -32
142 103 774 735 538 538 737 743 733 755 -18 47 -45 23 -786 -718z"/>
<path d="M2738 1843 c-390 -390 -708 -714 -708 -720 0 -7 8 -17 19 -22 16 -9
114 86 725 697 703 703 736 740 686 750 -9 1 -314 -297 -722 -705z"/>
<path d="M2798 1563 c-654 -654 -679 -681 -624 -691 26 -5 1306 1273 1306
1304 0 66 -25 43 -682 -613z"/>
<path d="M2882 1307 c-562 -562 -593 -597 -533 -597 9 0 267 251 575 559 554
554 585 589 536 599 -9 1 -256 -239 -578 -561z"/>
<path d="M3001 1086 c-439 -439 -471 -476 -414 -476 10 0 206 188 457 439 434
434 465 469 416 479 -9 1 -206 -189 -459 -442z"/>
<path d="M3168 913 c-138 -138 -248 -256 -248 -266 0 -54 36 -26 281 219 246
246 275 283 229 292 -8 1 -122 -105 -262 -245z"/>
</g>
</svg>
